<?xml version="1.0" encoding="utf-8"?>
<!-- Generator: Adobe Illustrator 12.0.0, SVG Export Plug-In . SVG Version: 6.00 Build 51448)  -->
<!DOCTYPE svg PUBLIC "-//W3C//DTD SVG 1.1//EN" "http://www.w3.org/Graphics/SVG/1.1/DTD/svg11.dtd" [
	<!ENTITY ns_svg "http://www.w3.org/2000/svg">
	<!ENTITY ns_xlink "http://www.w3.org/1999/xlink">
]>
<svg  version="1.1" id="Ebene_1" xmlns="&ns_svg;" xmlns:xlink="&ns_xlink;" width="283.472" height="285.838"
	 viewBox="0 0 283.472 285.838" style="overflow:visible;enable-background:new 0 0 283.472 285.838;" xml:space="preserve">
<path d="M19.057,19.057h228.688v57.162H266.8V9.525c0-5.719-3.813-9.525-9.524-9.525H9.525C3.813,0,0,3.813,0,9.525v247.737
	c0,5.712,3.813,9.519,9.525,9.519h66.693v-19.057H19.057V19.057z M282.037,148.638l-30.493-30.487c-1.913-1.919-5.719-1.919-7.625,0
	l-24.781,24.774l38.125,38.112l24.774-24.774C283.95,154.356,283.95,150.544,282.037,148.638z M116.25,245.825
	c-1.912,1.919-1.912,1.919-1.912,3.806v36.207h36.206c1.912,0,1.912,0,3.813-1.906l93.375-93.369l-38.119-38.112L116.25,245.825z
	 M135.338,146.219l10.787-10.794c13.55,6.713,30.406,4.487,41.719-6.769c0.05-0.044,0.1-0.094,0.138-0.131l30.075-30.075
	c14.206-14.144,14.269-37.112,0.131-51.338c-0.044-0.05-0.094-0.087-0.131-0.131l-6.763-6.763
	c-6.825-6.844-16.088-10.693-25.744-10.693c-9.294,0-18.606,3.568-25.719,10.693L129.75,70.3
	c-11.35,11.307-13.65,28.237-6.906,41.831l-10.807,10.807c-4.969-2.463-10.456-3.8-16.094-3.813c-9.3,0-18.605,3.568-25.719,10.693
	L40.144,159.9c-14.206,14.149-14.269,37.118-0.131,51.337c0.056,0.044,0.1,0.094,0.131,0.132l6.75,6.756
	c14.144,14.206,37.125,14.269,51.344,0.131c0.044-0.05,0.094-0.094,0.132-0.131l30.081-30.075
	C139.787,176.75,142.075,159.813,135.338,146.219z M140.338,82.956L172.5,50.794c2.719-2.713,6.325-4.112,10.287-4.307
	c6.594-0.331,14.163,2.731,20.2,8.769c9.682,9.688,11.656,23.263,4.469,30.5l-32.169,32.163c-3.875,3.868-9.587,5.081-15.543,3.888
	l14.787-14.788c3.869-3.875,1.8-12.237-4.631-18.669c-6.419-6.425-14.794-8.487-18.663-4.618l-14.781,14.794
	C135.269,92.568,136.469,86.85,140.338,82.956z M117.825,175.394l-32.163,32.169c-7.212,7.213-20.813,5.219-30.493-4.463
	c-9.688-9.681-11.656-23.269-4.463-30.493l32.163-32.169c2.699-2.706,6.324-4.144,10.287-4.338c1.706-0.087,3.487,0.075,5.281,0.426
	l-14.706,14.699c-3.869,3.882-1.794,12.244,4.625,18.663c6.425,6.425,14.787,8.5,18.662,4.631l14.688-14.688
	C122.9,165.781,121.706,171.506,117.825,175.394z"/>
</svg>
